<svg xmlns="http://www.w3.org/2000/svg" xml:space="preserve" viewBox="0 0 24 24">
    <defs>
		<style>
			path, line {
                color: #000;
            }

            @media (prefers-color-scheme: dark) {
                path, line {
                    color: #fff;
                }
            }
		</style>
	</defs>
	<g fill="none" stroke="currentColor" stroke-linejoin="round" stroke-miterlimit="10">
		<path stroke-linecap="round" d="M23.5,18.5 c0,0.552-0.448,1-1,1h-21c-0.552,0-1-0.448-1-1s0.448-1,1-1h21C23.052,17.5,23.5,17.948,23.5,18.5z" />
		<line x1="19.5" x2="19.5" y1="17.5" y2="19.5" stroke-linecap="round" />
		<line x1="6.5" x2="5.5" y1="14" y2="13" stroke-linecap="round" />
		<line x1="13.5" x2="14.5" y1="14" y2="13" stroke-linecap="round" />
		<line x1="6" x2="4.5" y1="15.5" y2="15.5" stroke-linecap="round" />
		<line x1="15.5" x2="14" y1="15.5" y2="15.5" stroke-linecap="round" />
		<path d="M13.298,9.907 c1,0.787,2.54,0.821,3.547-0.057" />
		<path stroke-linecap="round" d="M19,0.512l-4.5,1 L8.928,12.893c-0.282,0.577-0.267,1.063,0.168,1.404c0.434,0.342,1.063,0.267,1.404-0.167L15.225,7l1.965,1.546l-0.657,2.27 c-0.052,0.353,0.063,0.711,0.312,0.967c0.249,0.256,0.603,0.382,0.958,0.339c0.385-0.046,0.72-0.283,0.892-0.63l1.945-5.611 L23.5,5.106V0.512H19z" />
	</g>
</svg>
