<?xml version="1.0" standalone="no"?>
<!DOCTYPE svg PUBLIC "-//W3C//DTD SVG 20010904//EN"
 "http://www.w3.org/TR/2001/REC-SVG-20010904/DTD/svg10.dtd">
<svg version="1.0" xmlns="http://www.w3.org/2000/svg"
 width="700.000000pt" height="700.000000pt" viewBox="0 0 700.000000 700.000000"
 preserveAspectRatio="xMidYMid meet">
<metadata>
Created by potrace 1.14, written by Peter Selinger 2001-2017
</metadata>
<g transform="translate(0.000000,700.000000) scale(0.100000,-0.100000)"
fill="#000000" stroke="none">
<path d="M5466 6983 c-32 -7 -67 -15 -79 -17 -174 -34 -1208 -271 -1228 -282
-38 -19 -56 -48 -132 -204 -35 -74 -127 -261 -202 -415 -76 -154 -186 -379
-245 -500 -59 -121 -167 -341 -240 -490 -168 -342 -347 -709 -460 -940 -48
-99 -163 -333 -254 -519 -91 -187 -177 -370 -191 -408 -87 -240 21 -478 253
-560 107 -38 223 -31 331 18 117 53 100 30 738 997 l164 247 47 -24 c58 -29
190 -71 257 -82 107 -17 315 -8 404 16 19 5 36 8 38 6 2 -2 5 -31 8 -64 20
-258 232 -448 496 -444 153 2 332 111 399 242 22 44 35 77 145 400 29 85 86
247 125 360 39 113 75 216 80 230 35 106 191 552 203 581 15 36 21 39 127 64
8 2 47 13 85 24 39 11 113 31 165 45 448 119 446 118 478 175 22 39 22 40 22
740 0 670 -1 703 -19 739 -11 20 -34 46 -53 57 -32 19 -52 20 -718 21 -533 0
-699 -2 -744 -13z m1237 -282 c7 -1 10 -1081 2 -1081 -2 0 -30 -7 -62 -16 -32
-8 -65 -17 -73 -19 -8 -2 -152 -41 -319 -87 -348 -95 -343 -92 -384 -210 -14
-40 -48 -138 -77 -218 -28 -80 -58 -165 -65 -190 -7 -25 -32 -97 -55 -160 -23
-63 -54 -153 -70 -200 -16 -47 -49 -143 -74 -215 -25 -71 -79 -228 -120 -347
-92 -268 -99 -283 -149 -316 -34 -23 -52 -27 -108 -27 -60 0 -71 3 -105 31
-76 61 -92 121 -63 223 11 36 21 73 23 81 3 8 39 135 81 281 85 291 87 312 39
368 -14 17 -54 52 -88 78 -35 26 -164 127 -287 224 -123 97 -233 181 -244 186
-38 20 -82 21 -124 3 -37 -17 -61 -50 -268 -362 -126 -189 -230 -347 -232
-353 -2 -5 -8 -14 -13 -20 -5 -5 -194 -289 -420 -630 -226 -341 -433 -655
-462 -697 -72 -109 -127 -134 -218 -99 -54 21 -82 84 -67 152 11 47 29 86 259
554 89 182 204 416 255 520 51 105 152 312 225 460 73 149 184 376 247 505
222 455 399 815 523 1064 l125 251 80 17 c44 9 91 19 105 22 14 2 55 11 91 20
37 8 78 17 90 20 13 2 62 13 109 25 47 11 97 22 110 25 14 2 45 9 70 15 25 5
56 12 70 15 14 2 106 23 205 45 188 43 218 50 274 60 28 5 1134 7 1164 2z
m-2160 -2008 c34 -27 68 -53 77 -60 8 -7 63 -50 121 -97 l106 -84 -36 -120
c-20 -66 -42 -126 -49 -135 -20 -23 -133 -75 -203 -93 -74 -19 -197 -24 -276
-12 -85 13 -188 51 -187 69 1 15 372 579 381 579 2 0 32 -21 66 -47z"/>
<path d="M1579 3350 c-94 -16 -144 -113 -105 -203 21 -48 333 -352 377 -367
51 -18 106 -5 145 34 39 39 49 71 40 131 -7 41 -19 56 -160 198 -207 208 -224
220 -297 207z"/>
<path d="M4184 3344 c-29 -10 -84 -59 -210 -186 -152 -153 -172 -178 -178
-214 -19 -112 91 -205 192 -162 47 19 351 324 373 373 50 112 -60 229 -177
189z"/>
<path d="M1278 2619 c-39 -10 -78 -39 -94 -70 -22 -43 -18 -110 9 -149 43 -64
57 -67 345 -66 l259 1 37 28 c82 63 79 178 -5 238 -32 22 -39 23 -280 24 -136
0 -258 -2 -271 -6z"/>
<path d="M4047 2619 c-129 -35 -145 -216 -23 -269 36 -16 71 -18 291 -16 262
2 270 3 313 49 64 68 37 194 -48 229 -28 12 -493 18 -533 7z"/>
<path d="M440 2039 c-114 -7 -167 -22 -242 -70 -199 -128 -256 -399 -127 -600
61 -95 182 -178 286 -196 51 -8 6158 -10 6252 -1 233 21 411 239 387 473 -19
188 -144 334 -325 381 -58 14 -328 16 -3095 17 -1667 1 -3078 -1 -3136 -4z
m5100 -434 c0 -109 -3 -145 -12 -145 -7 0 -1164 -1 -2572 -1 l-2558 0 -38 25
c-37 24 -70 78 -70 114 0 27 20 84 37 104 8 9 29 23 46 32 29 14 290 16 2600
16 l2567 0 0 -145z m1105 117 c46 -36 59 -62 59 -117 0 -61 -30 -110 -80 -131
-31 -13 -263 -18 -715 -15 l-75 1 1 143 c1 78 3 143 3 145 1 1 176 1 390 0
387 -3 388 -3 417 -26z"/>
</g>
</svg>
